<svg xmlns="http://www.w3.org/2000/svg" width="20.027" height="17.523" viewBox="0 0 20.027 17.523">
  <path id="Icon_awesome-wallet" data-name="Icon awesome-wallet" d="M18.04,6.005H3.129a.626.626,0,1,1,0-1.252h15.02a.626.626,0,0,0,.626-.626A1.878,1.878,0,0,0,16.9,2.25H2.5A2.5,2.5,0,0,0,0,4.753V17.27a2.5,2.5,0,0,0,2.5,2.5H18.04A1.937,1.937,0,0,0,20.027,17.9V7.883A1.937,1.937,0,0,0,18.04,6.005Zm-1.768,8.136a1.252,1.252,0,1,1,1.252-1.252A1.252,1.252,0,0,1,16.272,14.141Z" transform="translate(0 -2.25)" fill="#1eda6b"/>
</svg>
