<svg xmlns="http://www.w3.org/2000/svg" width="20.131" height="20.132" viewBox="0 0 20.131 20.132">
  <g id="Instagram" transform="translate(-507.066 -4980.066)">
    <path id="Path_395" data-name="Path 395" d="M3533.115,902.014a5.2,5.2,0,0,0-.269-1.648,5.016,5.016,0,0,0-2.311-2.768c-1.415-.786-3.049-.647-4.614-.647h-7.235a7.151,7.151,0,0,0-1.931.184,5.4,5.4,0,0,0-1.682.79,4.691,4.691,0,0,0-1.08,1.064,5.316,5.316,0,0,0-.99,2.668c-.022.28-.005.56-.005.84v7.87c0,.4.01.794,0,1.19a7.4,7.4,0,0,0,.022.874q.014.144.037.288a5.258,5.258,0,0,0,.131.588,5.325,5.325,0,0,0,.167.545,4.889,4.889,0,0,0,3.866,3.14,5.744,5.744,0,0,0,1.016.076q4.862.008,9.725,0a4.974,4.974,0,0,0,4.224-2.133,4.852,4.852,0,0,0,.931-2.924Q3533.122,907.013,3533.115,902.014Zm-10.064,9.19a4.193,4.193,0,1,1,4.2-4.177A4.206,4.206,0,0,1,3523.051,911.2Zm5.455-8.39a1.254,1.254,0,0,1,0-2.509,1.254,1.254,0,1,1,0,2.509Z" transform="translate(-3005.923 4083.125)" fill="#1eda6b"/>
  </g>
</svg>
