<svg xmlns="http://www.w3.org/2000/svg" width="23.077" height="17.523" viewBox="0 0 23.077 17.523">
  <path id="Path_168" data-name="Path 168" d="M1332.093,413.765l1.856-.927c-.209-.458-.469-.393-.763-.268a13.714,13.714,0,0,1-5.7,1.11,13.893,13.893,0,0,1-5.11-1.082c-.292-.121-.582-.26-.85.237l1.876.929c-.375.605-.721,1.193-1.106,1.754a.513.513,0,0,1-.454.107,17.709,17.709,0,0,1-5.351-2.7.683.683,0,0,1-.206-.461,19.33,19.33,0,0,1,3.107-12.346,1.935,1.935,0,0,1,.876-.744c1.206-.427,2.442-.766,3.664-1.15a.586.586,0,0,1,.841.419c.173.535.46.686,1.074.652,1.4-.077,2.812.023,4.218.015a.721.721,0,0,0,.494-.363c.531-1.018.358-.873,1.345-.635a31.987,31.987,0,0,1,3.5,1.137,1.594,1.594,0,0,1,.692.637,19.49,19.49,0,0,1,3.205,11.142,2.322,2.322,0,0,1-1.383,2.447c-1.332.6-2.649,1.238-3.964,1.876a.655.655,0,0,1-1-.351C1332.7,414.723,1332.4,414.272,1332.093,413.765Zm-6.043-5.945a2.147,2.147,0,1,0-4.271-.026,2.316,2.316,0,0,0,2.127,2.385A2.289,2.289,0,0,0,1326.05,407.82Zm7.662-.25a2.1,2.1,0,0,0-4.188-.267,2.361,2.361,0,0,0,.9,2.465,1.807,1.807,0,0,0,2.042.192A2.432,2.432,0,0,0,1333.712,407.57Z" transform="translate(-1316.222 -398.139)" fill="#1eda6b"/>
</svg>
