<svg xmlns="http://www.w3.org/2000/svg" xmlns:xlink="http://www.w3.org/1999/xlink" width="176" height="176" viewBox="0 0 176 176">
  <defs>
    <filter id="Ellipse_570" x="0" y="0" width="176" height="176" filterUnits="userSpaceOnUse">
      <feOffset dy="3" input="SourceAlpha"/>
      <feGaussianBlur stdDeviation="3" result="blur"/>
      <feFlood flood-opacity="0.161"/>
      <feComposite operator="in" in2="blur"/>
      <feComposite in="SourceGraphic"/>
    </filter>
    <filter id="Ellipse_569" x="19" y="19" width="138" height="138" filterUnits="userSpaceOnUse">
      <feOffset dy="3" input="SourceAlpha"/>
      <feGaussianBlur stdDeviation="3" result="blur-2"/>
      <feFlood flood-opacity="0.161"/>
      <feComposite operator="in" in2="blur-2"/>
      <feComposite in="SourceGraphic"/>
    </filter>
    <filter id="Ellipse_568" x="35" y="35" width="106" height="106" filterUnits="userSpaceOnUse">
      <feOffset dy="3" input="SourceAlpha"/>
      <feGaussianBlur stdDeviation="3" result="blur-3"/>
      <feFlood flood-opacity="0.161"/>
      <feComposite operator="in" in2="blur-3"/>
      <feComposite in="SourceGraphic"/>
    </filter>
  </defs>
  <g id="Group_1313" data-name="Group 1313" transform="translate(-5357.282 -6438.282)">
    <g transform="matrix(1, 0, 0, 1, 5357.28, 6438.28)" filter="url(#Ellipse_570)">
      <circle id="Ellipse_570-2" data-name="Ellipse 570" cx="79" cy="79" r="79" transform="translate(9 6)" fill="#fff" opacity="0.15"/>
    </g>
    <g transform="matrix(1, 0, 0, 1, 5357.28, 6438.28)" filter="url(#Ellipse_569)">
      <circle id="Ellipse_569-2" data-name="Ellipse 569" cx="60" cy="60" r="60" transform="translate(28 25)" fill="#fff" opacity="0.15"/>
    </g>
    <g transform="matrix(1, 0, 0, 1, 5357.28, 6438.28)" filter="url(#Ellipse_568)">
      <circle id="Ellipse_568-2" data-name="Ellipse 568" cx="44" cy="44" r="44" transform="translate(44 41)" fill="#fff" opacity="0.15"/>
    </g>
    <path id="Icon_open-audio-spectrum" data-name="Icon open-audio-spectrum" d="M27.324,0V54.648h6.831V0ZM13.662,6.831V47.817h6.831V6.831Zm27.324,6.831V40.986h6.831V13.662ZM0,20.493V34.155H6.831V20.493Z" transform="translate(5422.049 6496.73)" fill="#fff"/>
  </g>
</svg>
