<svg xmlns="http://www.w3.org/2000/svg" width="25.119" height="25.119" viewBox="0 0 25.119 25.119">
  <path id="Icon_metro-cross" data-name="Icon metro-cross" d="M27.461,22.108h0l-7.62-7.62,7.62-7.62h0a.787.787,0,0,0,0-1.11l-3.6-3.6a.787.787,0,0,0-1.11,0h0l-7.62,7.62L7.51,2.157h0a.787.787,0,0,0-1.11,0l-3.6,3.6a.787.787,0,0,0,0,1.11h0l7.62,7.62L2.8,22.108h0a.787.787,0,0,0,0,1.11l3.6,3.6a.787.787,0,0,0,1.11,0h0l7.62-7.62,7.62,7.62h0a.787.787,0,0,0,1.11,0l3.6-3.6a.787.787,0,0,0,0-1.11Z" transform="translate(-2.571 -1.928)" fill="#b624f4"/>
</svg>
