<svg xmlns="http://www.w3.org/2000/svg" width="21.583" height="17.986" viewBox="0 0 21.583 17.986">
  <g id="Group_1321" data-name="Group 1321" transform="translate(-6205.75 -5372.5)">
    <path id="Icon_awesome-wifi" data-name="Icon awesome-wifi" d="M17.843,3.453a13.067,13.067,0,0,0-17.7,0,.447.447,0,0,0-.01.646l.962.955a.456.456,0,0,0,.63.011,10.782,10.782,0,0,1,14.536,0,.457.457,0,0,0,.63-.011l.962-.955a.447.447,0,0,0-.01-.646Zm-8.85,5.54a1.8,1.8,0,1,0,1.8,1.8A1.8,1.8,0,0,0,8.993,8.993Zm5.7-2.349a8.628,8.628,0,0,0-11.391,0,.444.444,0,0,0-.016.651l.968.955a.459.459,0,0,0,.62.022,6.329,6.329,0,0,1,8.248,0,.458.458,0,0,0,.62-.022l.968-.955A.444.444,0,0,0,14.689,6.644Z" transform="translate(6205.75 5390.486) rotate(-90)" fill="#fff"/>
    <path id="Icon_awesome-wifi-2" data-name="Icon awesome-wifi" d="M17.843,9.137a13.067,13.067,0,0,1-17.7,0,.447.447,0,0,1-.01-.646L1.1,7.536a.456.456,0,0,1,.63-.011,10.782,10.782,0,0,0,14.536,0,.457.457,0,0,1,.63.011l.962.955A.447.447,0,0,1,17.843,9.137ZM8.993,3.6a1.8,1.8,0,1,1,1.8-1.8A1.8,1.8,0,0,1,8.993,3.6Zm5.7,2.349a8.628,8.628,0,0,1-11.391,0A.444.444,0,0,1,3.281,5.3l.968-.955a.459.459,0,0,1,.62-.022,6.329,6.329,0,0,0,8.248,0,.458.458,0,0,1,.62.022L14.7,5.3A.444.444,0,0,1,14.689,5.946Z" transform="translate(6214.743 5390.486) rotate(-90)" fill="#fff"/>
  </g>
</svg>
