<svg xmlns="http://www.w3.org/2000/svg" xmlns:xlink="http://www.w3.org/1999/xlink" width="53.921" height="52" viewBox="0 0 53.921 52">
  <defs>
    <filter id="Icon_awesome-plus" x="22.096" y="4.465" width="31.825" height="31.825" filterUnits="userSpaceOnUse">
      <feOffset dy="3" input="SourceAlpha"/>
      <feGaussianBlur stdDeviation="3" result="blur"/>
      <feFlood flood-opacity="0.161"/>
      <feComposite operator="in" in2="blur"/>
      <feComposite in="SourceGraphic"/>
    </filter>
  </defs>
  <g id="Group_1278" data-name="Group 1278" transform="translate(-595 -967.052)">
    <rect id="Rectangle_469" data-name="Rectangle 469" width="52" height="52" rx="26" transform="translate(595 967.052)" fill="#fff"/>
    <g id="Icon_feather-smile" data-name="Icon feather-smile" transform="translate(607.368 979.061)">
      <path id="Path_396" data-name="Path 396" d="M31.338,17.169A14.169,14.169,0,1,1,17.169,3,14.169,14.169,0,0,1,31.338,17.169Z" transform="translate(-3 -3)" fill="none" stroke="#1eda6b" stroke-linecap="round" stroke-linejoin="round" stroke-width="4"/>
      <path id="Path_397" data-name="Path 397" d="M12,21a7.651,7.651,0,0,0,5.668,2.834A7.651,7.651,0,0,0,23.335,21" transform="translate(-3.499 -3.997)" fill="none" stroke="#1eda6b" stroke-linecap="round" stroke-linejoin="round" stroke-width="4"/>
      <path id="Path_398" data-name="Path 398" d="M13.5,13.5h.014" transform="translate(-3.582 -3.582)" fill="none" stroke="#1eda6b" stroke-linecap="round" stroke-linejoin="round" stroke-width="4"/>
      <path id="Path_399" data-name="Path 399" d="M22.5,13.5h.014" transform="translate(-4.08 -3.582)" fill="none" stroke="#1eda6b" stroke-linecap="round" stroke-linejoin="round" stroke-width="4"/>
    </g>
    <g transform="matrix(1, 0, 0, 1, 595, 967.05)" filter="url(#Icon_awesome-plus)">
      <path id="Icon_awesome-plus-2" data-name="Icon awesome-plus" d="M12.838,7.681H8.394V3.238a.988.988,0,0,0-.988-.988H6.419a.988.988,0,0,0-.988.988V7.681H.988A.988.988,0,0,0,0,8.669v.987a.988.988,0,0,0,.988.988H5.431v4.444a.988.988,0,0,0,.988.988h.988a.988.988,0,0,0,.988-.988V10.644h4.444a.988.988,0,0,0,.988-.988V8.669A.988.988,0,0,0,12.838,7.681Z" transform="translate(31.1 8.21)" fill="#1eda6b"/>
    </g>
  </g>
</svg>
