<svg xmlns="http://www.w3.org/2000/svg" xmlns:xlink="http://www.w3.org/1999/xlink" width="176" height="176" viewBox="0 0 176 176">
  <defs>
    <filter id="Ellipse_570" x="0" y="0" width="176" height="176" filterUnits="userSpaceOnUse">
      <feOffset dy="3" input="SourceAlpha"/>
      <feGaussianBlur stdDeviation="3" result="blur"/>
      <feFlood flood-opacity="0.161"/>
      <feComposite operator="in" in2="blur"/>
      <feComposite in="SourceGraphic"/>
    </filter>
    <filter id="Ellipse_569" x="19" y="19" width="138" height="138" filterUnits="userSpaceOnUse">
      <feOffset dy="3" input="SourceAlpha"/>
      <feGaussianBlur stdDeviation="3" result="blur-2"/>
      <feFlood flood-opacity="0.161"/>
      <feComposite operator="in" in2="blur-2"/>
      <feComposite in="SourceGraphic"/>
    </filter>
    <filter id="Ellipse_568" x="36" y="36" width="104" height="104" filterUnits="userSpaceOnUse">
      <feOffset dy="3" input="SourceAlpha"/>
      <feGaussianBlur stdDeviation="3" result="blur-3"/>
      <feFlood flood-opacity="0.161"/>
      <feComposite operator="in" in2="blur-3"/>
      <feComposite in="SourceGraphic"/>
    </filter>
  </defs>
  <g id="Group_1311" data-name="Group 1311" transform="translate(-5356.726 -6437.726)">
    <g transform="matrix(1, 0, 0, 1, 5356.73, 6437.73)" filter="url(#Ellipse_570)">
      <circle id="Ellipse_570-2" data-name="Ellipse 570" cx="79" cy="79" r="79" transform="translate(9 6)" fill="#fff" opacity="0.15"/>
    </g>
    <g transform="matrix(1, 0, 0, 1, 5356.73, 6437.73)" filter="url(#Ellipse_569)">
      <circle id="Ellipse_569-2" data-name="Ellipse 569" cx="60" cy="60" r="60" transform="translate(28 25)" fill="#fff" opacity="0.15"/>
    </g>
    <g transform="matrix(1, 0, 0, 1, 5356.73, 6437.73)" filter="url(#Ellipse_568)">
      <circle id="Ellipse_568-2" data-name="Ellipse 568" cx="43" cy="43" r="43" transform="translate(45 42)" fill="#fff" opacity="0.15"/>
    </g>
    <path id="Icon_awesome-video" data-name="Icon awesome-video" d="M27.435,4.5H3.9A3.9,3.9,0,0,0,0,8.4V31.935a3.9,3.9,0,0,0,3.9,3.9H27.435a3.9,3.9,0,0,0,3.9-3.9V8.4A3.9,3.9,0,0,0,27.435,4.5ZM42.891,7.576l-8.944,6.169V26.59l8.944,6.161A2.617,2.617,0,0,0,47,30.646V9.682A2.618,2.618,0,0,0,42.891,7.576Z" transform="translate(5422.356 6503.312)" fill="#fff"/>
  </g>
</svg>
