<svg xmlns="http://www.w3.org/2000/svg" width="52" height="52" viewBox="0 0 52 52">
  <g id="Group_1336" data-name="Group 1336" transform="translate(-492 -967)">
    <rect id="Rectangle_486" data-name="Rectangle 486" width="52" height="52" rx="26" transform="translate(492 967)" fill="#1eda6b"/>
    <path id="Icon_awesome-video" data-name="Icon awesome-video" d="M15.544,4.5H2.21A2.21,2.21,0,0,0,0,6.71V20.044a2.21,2.21,0,0,0,2.21,2.21H15.544a2.21,2.21,0,0,0,2.21-2.21V6.71A2.21,2.21,0,0,0,15.544,4.5ZM24.3,6.243l-5.067,3.5v7.277L24.3,20.506a1.482,1.482,0,0,0,2.33-1.193V7.436A1.483,1.483,0,0,0,24.3,6.243Z" transform="translate(505 979.5)"/>
  </g>
</svg>
